Coordinates
version=1
nRows=14
nColumns=24
inDegrees=yes

Units are S.I. units (second, meters, Newtons, ...)
Angles are in degrees.

endheader
time	pelvis_tilt	pelvis_list	pelvis_rotation	pelvis_tx	pelvis_ty	pelvis_tz	hip_flexion_r	hip_adduction_r	hip_rotation_r	knee_angle_r	ankle_angle_r	subtalar_angle_r	mtp_angle_r	hip_flexion_l	hip_adduction_l	hip_rotation_l	knee_angle_l	ankle_angle_l	subtalar_angle_l	mtp_angle_l	lumbar_extension	lumbar_bending	lumbar_rotation
      1.42500000	      1.65705633	      6.68254351	     -4.39116788	      0.39417985	      1.02291141	      0.28486921	     15.42778586	     -7.06236921	      0.26131296	    -61.32473196	      5.56406543	    -13.61597432	      2.06068090	      2.69937024	     11.47911822	      0.88780810	     -7.99403339	      0.58469548	    -19.57719908	      4.85573196	     -4.38654565	     -8.41583096	      5.10531551
      1.42916667	      1.68789137	      6.60246229	     -4.22852532	      0.39916845	      1.02342781	      0.28469467	     15.80694757	     -6.95189032	      0.13905703	    -60.58288664	      5.74493392	    -13.52619277	      2.01160845	      2.14126500	     11.42975961	      1.16301475	     -7.62499153	      0.65368833	    -19.63191642	      4.78462147	     -4.47425581	     -8.33081901	      4.70021606
      1.43333333	      1.64820840	      6.50299437	     -4.05249994	      0.40416071	      1.02382325	      0.28454708	     16.23957251	     -6.80709030	      0.01871988	    -59.78931974	      5.94797763	    -13.44945709	      1.98876468	      1.68930919	     11.34127850	      1.36821621	     -7.31925339	      0.70395732	    -19.57461752	      4.74792496	     -4.47463162	     -8.23188492	      4.53178822
      1.43750000	      1.67374875	      6.42251002	     -3.88400363	      0.40913532	      1.02425533	      0.28438049	     16.59690865	     -6.70222971	     -0.11324250	    -58.96882218	      6.11513564	    -13.36462424	      1.94586349	      1.14680639	     11.28135240	      1.62914174	     -6.96646838	      0.78474775	    -19.60323497	      4.67926411	     -4.55517790	     -8.14406030	      4.16019364
      1.44166667	      1.64463391	      6.32858422	     -3.71373751	      0.41411370	      1.02460380	      0.28425395	     16.99382444	     -6.56902784	     -0.23051567	    -58.09948571	      6.29547151	    -13.30406674	      1.92634962	      0.68760535	     11.19116000	      1.82027372	     -6.66046224	      0.83170014	    -19.53300688	      4.64591034	     -4.57104561	     -8.04670672	      4.00043392
      1.44583333	      1.66554185	      6.25338803	     -3.54669403	      0.41907290	      1.02495502	      0.28411304	     17.33190842	     -6.47216517	     -0.36077338	    -57.20762689	      6.43164383	    -13.24261565	      1.88473702	      0.15707813	     11.12756827	      2.07304232	     -6.31543624	      0.91512237	    -19.55745467	      4.57663288	     -4.64550109	     -7.97144828	      3.62056689
      1.45000000	      1.62876087	      6.17696682	     -3.37811454	      0.42402963	      1.02519330	      0.28399322	     17.71956045	     -6.36505516	     -0.47713562	    -56.28038067	      6.58643220	    -13.17604350	      1.86057291	     -0.28452738	     11.05037998	      2.26112446	     -6.01903451	      0.96905136	    -19.50547346	      4.53445952	     -4.64713601	     -7.89676473	      3.43588477
      1.45416667	      1.60982489	      6.09900743	     -3.21281139	      0.42898103	      1.02541353	      0.28388013	     18.07584410	     -6.26290045	     -0.60032781	    -55.32131781	      6.71028643	    -13.12538648	      1.83609671	     -0.75031702	     10.97000878	      2.46049617	     -5.71148091	      1.04355118	    -19.46497003	      4.49325259	     -4.67583444	     -7.81244498	      3.19630935
      1.45833333	      1.62764734	      6.05407712	     -3.06367307	      0.43390828	      1.02561919	      0.28378529	     18.39673229	     -6.20304696	     -0.71142423	    -54.35444242	      6.80847534	    -13.08258923	      1.79539007	     -1.26648163	     10.92748397	      2.68850686	     -5.37134995	      1.11930967	    -19.47997420	      4.42385073	     -4.74836021	     -7.77237362	      2.84228480
      1.46250000	      1.59461224	      5.98866921	     -2.90610441	      0.43885503	      1.02573460	      0.28369295	     18.74811235	     -6.11622337	     -0.82433875	    -53.34062559	      6.89204706	    -13.04536272	      1.75721246	     -1.70992593	     10.85514313	      2.88348587	     -5.07236348	      1.19064108	    -19.45933290	      4.35799349	     -4.75786307	     -7.70545447	      2.59920648
      1.46666667	      1.54509522	      5.93241677	     -2.75529509	      0.44379342	      1.02579780	      0.28362782	     19.10784350	     -6.03858267	     -0.92980382	    -52.29908441	      6.97748574	    -12.98762481	      1.73843091	     -2.12251954	     10.78588136	      3.03601250	     -4.79225243	      1.25323099	    -19.39030889	      4.32591549	     -4.74327638	     -7.64610655	      2.45318765
      1.47083333	      1.51396916	      5.87205007	     -2.60597195	      0.44873454	      1.02583393	      0.28355854	     19.43316172	     -5.96269148	     -1.04158316	    -51.22869086	      7.02150905	    -12.95011325	      1.71714133	     -2.55775547	     10.71281314	      3.20778085	     -4.51007254	      1.34193946	    -19.34416968	      4.29182988	     -4.75433352	     -7.58259008	      2.23705388
      1.47500000	      1.48921869	      5.82761163	     -2.46673241	      0.45367720	      1.02583299	      0.28350203	     19.74577519	     -5.90629036	     -1.14577988	    -50.14115461	      7.05181527	    -12.91056576	      1.69692308	     -2.99948252	     10.65596195	      3.37338673	     -4.22429812	      1.42463959	    -19.29958112	      4.25884286	     -4.77106286	     -7.53652049	      2.01805386
      1.47916667	      1.48638873	      5.79213675	     -2.33743681	      0.45859660	      1.02581564	      0.28346464	     20.02805959	     -5.86205193	     -1.24794285	    -49.03403369	      7.04284471	    -12.90786150	      1.66150917	     -3.47110339	     10.60945646	      3.56521674	     -3.92131524	      1.52283734	    -19.31306493	      4.19874131	     -4.81731373	     -7.51031774	      1.68853234
